<svg xmlns="http://www.w3.org/2000/svg" viewBox="0 0 1200 800" style="background: linear-gradient(135deg, #6f42c1 0%, #0d6efd 100%)">
  <!-- Background -->
  <rect width="1200" height="800" fill="url(#bgGradient)"/>
  
  <!-- Phone/tablet display -->
  <g transform="translate(100, 150)">
    <!-- Device frame -->
    <rect x="0" y="0" width="300" height="400" fill="#1f2937" rx="25"/>
    <rect x="15" y="30" width="270" height="340" fill="#111827" rx="15"/>
    
    <!-- Screen content -->
    <rect x="20" y="35" width="260" height="330" fill="#f8f9fa" rx="10"/>
    
    <!-- Header -->
    <rect x="25" y="45" width="250" height="40" fill="#198754" rx="5"/>
    <text x="150" y="70" text-anchor="middle" fill="white" font-family="Arial, sans-serif" font-size="16" font-weight="bold">ข้อมูลผลิตภัณฑ์</text>
    
    <!-- Product image placeholder -->
    <rect x="30" y="95" width="240" height="120" fill="#e9ecef" rx="8"/>
    <circle cx="150" cy="155" r="25" fill="#6c757d"/>
    <text x="150" y="165" text-anchor="middle" fill="white" font-family="Arial, sans-serif" font-size="20">📷</text>
    
    <!-- Data sections -->
    <g fill="#333333" font-family="Arial, sans-serif">
      <!-- Product name -->
      <rect x="30" y="225" width="240" height="25" fill="#ffffff" stroke="#dee2e6" rx="3"/>
      <text x="35" y="242" font-size="12" font-weight="bold">ผักคะน้าปลอดสาร</text>
      
      <!-- Code -->
      <rect x="30" y="255" width="240" height="20" fill="#f8f9fa" stroke="#dee2e6" rx="3"/>
      <text x="35" y="268" font-size="10" fill="#6c757d">รหัส: 01-4102010502568</text>
      
      <!-- Farm info -->
      <rect x="30" y="280" width="240" height="20" fill="#ffffff" stroke="#dee2e6" rx="3"/>
      <text x="35" y="293" font-size="10">🏡 ฟาร์มสมชาย อุดรธานี</text>
      
      <!-- Date -->
      <rect x="30" y="305" width="240" height="20" fill="#f8f9fa" stroke="#dee2e6" rx="3"/>
      <text x="35" y="318" font-size="10">📅 เก็บเกี่ยว: 15 ม.ค. 2567</text>
      
      <!-- Certifications -->
      <rect x="30" y="330" width="115" height="20" fill="#d1ecf1" stroke="#b8daff" rx="3"/>
      <text x="35" y="343" font-size="9" fill="#0c5460">✓ ปลอดสาร</text>
      
      <rect x="155" y="330" width="115" height="20" fill="#d4edda" stroke="#c3e6cb" rx="3"/>
      <text x="160" y="343" font-size="9" fill="#155724">✓ ออร์แกนิค</text>
    </g>
  </g>
  
  <!-- Data visualization charts -->
  <g transform="translate(450, 200)">
    <!-- Chart 1: Bar chart -->
    <rect x="0" y="0" width="200" height="150" fill="rgba(255,255,255,0.1)" stroke="rgba(255,255,255,0.3)" rx="10"/>
    <text x="100" y="20" text-anchor="middle" fill="white" font-family="Arial, sans-serif" font-size="14" font-weight="bold">สถิติการผลิต</text>
    
    <!-- Bars -->
    <rect x="20" y="40" width="20" height="80" fill="#22c55e"/>
    <rect x="50" y="50" width="20" height="70" fill="#3b82f6"/>
    <rect x="80" y="35" width="20" height="85" fill="#f59e0b"/>
    <rect x="110" y="45" width="20" height="75" fill="#ef4444"/>
    <rect x="140" y="55" width="20" height="65" fill="#8b5cf6"/>
    <rect x="170" y="40" width="20" height="80" fill="#06b6d4"/>
    
    <!-- Labels -->
    <text x="30" y="135" text-anchor="middle" fill="white" font-size="8">ม.ค.</text>
    <text x="60" y="135" text-anchor="middle" fill="white" font-size="8">ก.พ.</text>
    <text x="90" y="135" text-anchor="middle" fill="white" font-size="8">มี.ค.</text>
    <text x="120" y="135" text-anchor="middle" fill="white" font-size="8">เม.ย.</text>
    <text x="150" y="135" text-anchor="middle" fill="white" font-size="8">พ.ค.</text>
    <text x="180" y="135" text-anchor="middle" fill="white" font-size="8">มิ.ย.</text>
  </g>
  
  <!-- Chart 2: Pie chart -->
  <g transform="translate(700, 200)">
    <rect x="0" y="0" width="180" height="150" fill="rgba(255,255,255,0.1)" stroke="rgba(255,255,255,0.3)" rx="10"/>
    <text x="90" y="20" text-anchor="middle" fill="white" font-family="Arial, sans-serif" font-size="14" font-weight="bold">คุณภาพผลผลิต</text>
    
    <!-- Pie slices -->
    <circle cx="90" cy="85" r="40" fill="none" stroke="#22c55e" stroke-width="15" stroke-dasharray="75 157" transform="rotate(-90 90 85)"/>
    <circle cx="90" cy="85" r="40" fill="none" stroke="#3b82f6" stroke-width="15" stroke-dasharray="50 157" stroke-dashoffset="-75" transform="rotate(-90 90 85)"/>
    <circle cx="90" cy="85" r="40" fill="none" stroke="#f59e0b" stroke-width="15" stroke-dasharray="32 157" stroke-dashoffset="-125" transform="rotate(-90 90 85)"/>
    
    <!-- Legend -->
    <rect x="10" y="130" width="8" height="8" fill="#22c55e"/>
    <text x="22" y="138" fill="white" font-size="8">เกรด A (60%)</text>
    <rect x="80" y="130" width="8" height="8" fill="#3b82f6"/>
    <text x="92" y="138" fill="white" font-size="8">เกรด B (30%)</text>
    <rect x="150" y="130" width="8" height="8" fill="#f59e0b"/>
    <text x="162" y="138" fill="white" font-size="8">เกรด C (10%)</text>
  </g>
  
  <!-- Info cards -->
  <g transform="translate(150, 450)">
    <!-- Card 1 -->
    <rect x="0" y="0" width="120" height="80" fill="rgba(255,255,255,0.1)" stroke="rgba(255,255,255,0.2)" rx="10"/>
    <text x="60" y="25" text-anchor="middle" fill="white" font-family="Arial, sans-serif" font-size="24">📊</text>
    <text x="60" y="45" text-anchor="middle" fill="white" font-family="Arial, sans-serif" font-size="12" font-weight="bold">รายงานสถิติ</text>
    <text x="60" y="60" text-anchor="middle" fill="rgba(255,255,255,0.8)" font-family="Arial, sans-serif" font-size="10">วิเคราะห์ข้อมูล</text>
    <text x="60" y="72" text-anchor="middle" fill="rgba(255,255,255,0.8)" font-family="Arial, sans-serif" font-size="10">การผลิต</text>
    
    <!-- Card 2 -->
    <rect x="140" y="0" width="120" height="80" fill="rgba(255,255,255,0.1)" stroke="rgba(255,255,255,0.2)" rx="10"/>
    <text x="200" y="25" text-anchor="middle" fill="white" font-family="Arial, sans-serif" font-size="24">🔍</text>
    <text x="200" y="45" text-anchor="middle" fill="white" font-family="Arial, sans-serif" font-size="12" font-weight="bold">ติดตามสถานะ</text>
    <text x="200" y="60" text-anchor="middle" fill="rgba(255,255,255,0.8)" font-family="Arial, sans-serif" font-size="10">เส้นทางสินค้า</text>
    <text x="200" y="72" text-anchor="middle" fill="rgba(255,255,255,0.8)" font-family="Arial, sans-serif" font-size="10">แบบเรียลไทม์</text>
    
    <!-- Card 3 -->
    <rect x="280" y="0" width="120" height="80" fill="rgba(255,255,255,0.1)" stroke="rgba(255,255,255,0.2)" rx="10"/>
    <text x="340" y="25" text-anchor="middle" fill="white" font-family="Arial, sans-serif" font-size="24">✅</text>
    <text x="340" y="45" text-anchor="middle" fill="white" font-family="Arial, sans-serif" font-size="12" font-weight="bold">ตรวจสอบคุณภาพ</text>
    <text x="340" y="60" text-anchor="middle" fill="rgba(255,255,255,0.8)" font-family="Arial, sans-serif" font-size="10">มาตรฐานความ</text>
    <text x="340" y="72" text-anchor="middle" fill="rgba(255,255,255,0.8)" font-family="Arial, sans-serif" font-size="10">ปลอดภัย</text>
    
    <!-- Card 4 -->
    <rect x="420" y="0" width="120" height="80" fill="rgba(255,255,255,0.1)" stroke="rgba(255,255,255,0.2)" rx="10"/>
    <text x="480" y="25" text-anchor="middle" fill="white" font-family="Arial, sans-serif" font-size="24">🏆</text>
    <text x="480" y="45" text-anchor="middle" fill="white" font-family="Arial, sans-serif" font-size="12" font-weight="bold">รับรองมาตรฐาน</text>
    <text x="480" y="60" text-anchor="middle" fill="rgba(255,255,255,0.8)" font-family="Arial, sans-serif" font-size="10">ใบรับรองปลอดสาร</text>
    <text x="480" y="72" text-anchor="middle" fill="rgba(255,255,255,0.8)" font-family="Arial, sans-serif" font-size="10">และออร์แกนิค</text>
  </g>
  
  <!-- QR code corner -->
  <g transform="translate(950, 500)">
    <!-- QR background -->
    <rect x="0" y="0" width="80" height="80" fill="white" rx="5"/>
    
    <!-- QR pattern -->
    <g fill="black">
      <!-- Corner markers -->
      <rect x="8" y="8" width="20" height="20"/>
      <rect x="12" y="12" width="12" height="12" fill="white"/>
      <rect x="16" y="16" width="4" height="4" fill="black"/>
      
      <rect x="52" y="8" width="20" height="20"/>
      <rect x="56" y="12" width="12" height="12" fill="white"/>
      <rect x="60" y="16" width="4" height="4" fill="black"/>
      
      <rect x="8" y="52" width="20" height="20"/>
      <rect x="12" y="56" width="12" height="12" fill="white"/>
      <rect x="16" y="60" width="4" height="4" fill="black"/>
      
      <!-- Data pattern -->
      <rect x="32" y="12" width="4" height="4"/>
      <rect x="40" y="12" width="4" height="4"/>
      <rect x="36" y="20" width="4" height="4"/>
      <rect x="44" y="20" width="4" height="4"/>
      
      <rect x="12" y="32" width="4" height="4"/>
      <rect x="20" y="36" width="4" height="4"/>
      <rect x="28" y="32" width="4" height="4"/>
      <rect x="36" y="36" width="4" height="4"/>
      <rect x="44" y="32" width="4" height="4"/>
      <rect x="52" y="36" width="4" height="4"/>
      <rect x="60" y="32" width="4" height="4"/>
      <rect x="68" y="36" width="4" height="4"/>
      
      <rect x="32" y="44" width="4" height="4"/>
      <rect x="40" y="48" width="4" height="4"/>
      <rect x="48" y="44" width="4" height="4"/>
      <rect x="56" y="48" width="4" height="4"/>
      <rect x="64" y="44" width="4" height="4"/>
      
      <rect x="32" y="60" width="4" height="4"/>
      <rect x="40" y="56" width="4" height="4"/>
      <rect x="48" y="64" width="4" height="4"/>
      <rect x="56" y="60" width="4" height="4"/>
      <rect x="64" y="68" width="4" height="4"/>
    </g>
    
    <text x="40" y="95" text-anchor="middle" fill="white" font-family="Arial, sans-serif" font-size="8">แชร์ข้อมูล</text>
  </g>
  
  <!-- Floating elements -->
  <g fill="white" opacity="0.7">
    <!-- WiFi icon -->
    <g transform="translate(50, 50)">
      <path d="M25 40 Q10 25 10 15 Q10 5 25 5 Q40 5 40 15 Q40 25 25 40" fill="none" stroke="white" stroke-width="3"/>
      <path d="M25 35 Q15 25 15 18 Q15 12 25 12 Q35 12 35 18 Q35 25 25 35" fill="none" stroke="white" stroke-width="3"/>
      <circle cx="25" cy="32" r="3"/>
    </g>
    
    <!-- Cloud sync -->
    <g transform="translate(980, 100)">
      <ellipse cx="25" cy="20" rx="20" ry="12"/>
      <ellipse cx="15" cy="18" rx="12" ry="8"/>
      <ellipse cx="35" cy="18" rx="12" ry="8"/>
      <path d="M25 10 L25 5 M22 8 L25 5 L28 8" stroke="white" stroke-width="2" fill="none"/>
      <text x="25" y="45" text-anchor="middle" font-size="8">ซิงค์ข้อมูล</text>
    </g>
    
    <!-- Security shield -->
    <g transform="translate(50, 600)">
      <path d="M25 5 L15 10 L15 25 Q15 35 25 40 Q35 35 35 25 L35 10 Z" fill="rgba(255,255,255,0.8)"/>
      <path d="M20 20 L23 23 L30 16" stroke="#22c55e" stroke-width="3" fill="none"/>
    </g>
  </g>
  
  <!-- Title overlay -->
  <text x="600" y="120" text-anchor="middle" fill="white" font-family="Arial, sans-serif" font-size="48" font-weight="bold" opacity="0.9">ข้อมูลครบถ้วน</text>
  <text x="600" y="170" text-anchor="middle" fill="white" font-family="Arial, sans-serif" font-size="24" opacity="0.8">ตรวจสอบที่มาได้ทุกขั้นตอน</text>
  
  <!-- Step indicators -->
  <g transform="translate(100, 700)">
    <circle cx="50" cy="30" r="25" fill="rgba(255,255,255,0.2)" stroke="white" stroke-width="2"/>
    <text x="50" y="40" text-anchor="middle" fill="white" font-family="Arial, sans-serif" font-size="20" font-weight="bold">1</text>
    <text x="50" y="70" text-anchor="middle" fill="white" font-family="Arial, sans-serif" font-size="12">ข้อมูลเกษตรกร</text>
  </g>
  
  <g transform="translate(300, 700)">
    <circle cx="50" cy="30" r="25" fill="rgba(255,255,255,0.2)" stroke="white" stroke-width="2"/>
    <text x="50" y="40" text-anchor="middle" fill="white" font-family="Arial, sans-serif" font-size="20" font-weight="bold">2</text>
    <text x="50" y="70" text-anchor="middle" fill="white" font-family="Arial, sans-serif" font-size="12">การปลูกและดูแล</text>
  </g>
  
  <g transform="translate(500, 700)">
    <circle cx="50" cy="30" r="25" fill="rgba(255,255,255,0.2)" stroke="white" stroke-width="2"/>
    <text x="50" y="40" text-anchor="middle" fill="white" font-family="Arial, sans-serif" font-size="20" font-weight="bold">3</text>
    <text x="50" y="70" text-anchor="middle" fill="white" font-family="Arial, sans-serif" font-size="12">เก็บเกี่ยวและขนส่ง</text>
  </g>
  
  <g transform="translate(700, 700)">
    <circle cx="50" cy="30" r="25" fill="rgba(255,255,255,0.2)" stroke="white" stroke-width="2"/>
    <text x="50" y="40" text-anchor="middle" fill="white" font-family="Arial, sans-serif" font-size="20" font-weight="bold">4</text>
    <text x="50" y="70" text-anchor="middle" fill="white" font-family="Arial, sans-serif" font-size="12">รับรองคุณภาพ</text>
  </g>
  
  <g transform="translate(900, 700)">
    <circle cx="50" cy="30" r="25" fill="rgba(255,255,255,0.2)" stroke="white" stroke-width="2"/>
    <text x="50" y="40" text-anchor="middle" fill="white" font-family="Arial, sans-serif" font-size="20" font-weight="bold">5</text>
    <text x="50" y="70" text-anchor="middle" fill="white" font-family="Arial, sans-serif" font-size="12">ถึงมือผู้บริโภค</text>
  </g>
  
  <!-- Connecting lines between steps -->
  <g stroke="rgba(255,255,255,0.3)" stroke-width="2" fill="none">
    <path d="M175 730 L275 730"/>
    <path d="M375 730 L475 730"/>
    <path d="M575 730 L675 730"/>
    <path d="M775 730 L875 730"/>
  </g>
  
  <!-- Gradient definitions -->
  <defs>
    <linearGradient id="bgGradient" x1="0%" y1="0%" x2="100%" y2="100%">
      <stop offset="0%" style="stop-color:#6f42c1;stop-opacity:1" />
      <stop offset="100%" style="stop-color:#0d6efd;stop-opacity:1" />
    </linearGradient>
  </defs>
</svg>